<mxfile host="Electron" agent="Mozilla/5.0 (Windows NT 10.0; Win64; x64) AppleWebKit/537.36 (KHTML, like Gecko) draw.io/24.7.17 Chrome/128.0.6613.36 Electron/32.0.1 Safari/537.36" version="24.7.17">
  <diagram name="Page-1" id="f1b7ffb7-ca1e-a977-7cf5-a751b3c06c05">
    <mxGraphModel dx="1434" dy="884" grid="1" gridSize="10" guides="1" tooltips="1" connect="1" arrows="1" fold="1" page="1" pageScale="1" pageWidth="826" pageHeight="1169" background="none" math="0" shadow="0">
      <root>
        <mxCell id="0" />
        <mxCell id="1" parent="0" />
        <mxCell id="U4MEnaKeAxZYiRRCWtu5-118" value="" style="rounded=0;whiteSpace=wrap;html=1;" vertex="1" parent="1">
          <mxGeometry x="10" y="5" width="1170" height="715" as="geometry" />
        </mxCell>
        <mxCell id="U4MEnaKeAxZYiRRCWtu5-65" value="" style="rounded=1;whiteSpace=wrap;html=1;arcSize=1;fillOpacity=100;strokeOpacity=100;" vertex="1" parent="1">
          <mxGeometry x="380" y="90" width="470" height="590" as="geometry" />
        </mxCell>
        <mxCell id="2" value="Titre" style="text;spacingTop=-5;fontSize=18;fontStyle=0" parent="1" vertex="1">
          <mxGeometry x="90" y="25" width="50" height="20" as="geometry" />
        </mxCell>
        <mxCell id="20" value="" style="verticalLabelPosition=bottom;verticalAlign=top;strokeWidth=1;shape=mxgraph.mockup.graphics.iconGrid;strokeColor=#CCCCCC;gridSize=1,1;" parent="1" vertex="1">
          <mxGeometry x="30" y="17.5" width="50" height="45" as="geometry" />
        </mxCell>
        <mxCell id="48" value="Accueil     Articles     Profil" style="text;spacingTop=-5;" parent="1" vertex="1">
          <mxGeometry x="826" y="30" width="187.5" height="20" as="geometry" />
        </mxCell>
        <mxCell id="U4MEnaKeAxZYiRRCWtu5-66" value="Formulaire" style="text;strokeColor=none;fillColor=none;html=1;fontSize=24;fontStyle=1;verticalAlign=middle;align=center;" vertex="1" parent="1">
          <mxGeometry x="452" y="90" width="320" height="40" as="geometry" />
        </mxCell>
        <mxCell id="U4MEnaKeAxZYiRRCWtu5-106" value="" style="rounded=0;whiteSpace=wrap;html=1;" vertex="1" parent="1">
          <mxGeometry x="452" y="170" width="320" height="30" as="geometry" />
        </mxCell>
        <mxCell id="U4MEnaKeAxZYiRRCWtu5-107" value="" style="rounded=0;whiteSpace=wrap;html=1;" vertex="1" parent="1">
          <mxGeometry x="452" y="240" width="320" height="30" as="geometry" />
        </mxCell>
        <mxCell id="U4MEnaKeAxZYiRRCWtu5-108" value="" style="rounded=0;whiteSpace=wrap;html=1;" vertex="1" parent="1">
          <mxGeometry x="452" y="390" width="320" height="160" as="geometry" />
        </mxCell>
        <mxCell id="U4MEnaKeAxZYiRRCWtu5-109" value="Checkbox" style="strokeWidth=1;shadow=0;dashed=0;align=center;html=1;shape=mxgraph.mockup.forms.rrect;rSize=0;fillColor=#eeeeee;strokeColor=#999999;gradientColor=#cccccc;align=left;spacingLeft=4;fontSize=13;fontColor=#666666;labelPosition=right;" vertex="1" parent="1">
          <mxGeometry x="452" y="560" width="15" height="15" as="geometry" />
        </mxCell>
        <mxCell id="U4MEnaKeAxZYiRRCWtu5-110" value="********" style="strokeWidth=1;shadow=0;dashed=0;align=center;html=1;shape=mxgraph.mockup.forms.pwField;strokeColor=#999999;mainText=;align=left;fontColor=#666666;fontSize=17;spacingLeft=3;" vertex="1" parent="1">
          <mxGeometry x="452" y="310" width="320" height="30" as="geometry" />
        </mxCell>
        <mxCell id="U4MEnaKeAxZYiRRCWtu5-111" value="Text" style="text;html=1;align=center;verticalAlign=middle;whiteSpace=wrap;rounded=0;" vertex="1" parent="1">
          <mxGeometry x="442" y="140" width="60" height="30" as="geometry" />
        </mxCell>
        <mxCell id="U4MEnaKeAxZYiRRCWtu5-112" value="Password" style="text;html=1;align=center;verticalAlign=middle;whiteSpace=wrap;rounded=0;" vertex="1" parent="1">
          <mxGeometry x="452" y="280" width="70" height="30" as="geometry" />
        </mxCell>
        <mxCell id="U4MEnaKeAxZYiRRCWtu5-113" value="Text" style="text;html=1;align=center;verticalAlign=middle;whiteSpace=wrap;rounded=0;" vertex="1" parent="1">
          <mxGeometry x="442" y="210" width="60" height="30" as="geometry" />
        </mxCell>
        <mxCell id="U4MEnaKeAxZYiRRCWtu5-114" value="Textarea" style="text;html=1;align=center;verticalAlign=middle;whiteSpace=wrap;rounded=0;" vertex="1" parent="1">
          <mxGeometry x="452" y="360" width="70" height="30" as="geometry" />
        </mxCell>
        <mxCell id="U4MEnaKeAxZYiRRCWtu5-116" value="Submit" style="strokeWidth=1;shadow=0;dashed=0;align=center;html=1;shape=mxgraph.mockup.buttons.button;mainText=;buttonStyle=round;fontSize=17;fontStyle=1;whiteSpace=wrap;" vertex="1" parent="1">
          <mxGeometry x="537" y="600" width="150" height="50" as="geometry" />
        </mxCell>
        <mxCell id="U4MEnaKeAxZYiRRCWtu5-119" value="connexion" style="rounded=1;whiteSpace=wrap;html=1;" vertex="1" parent="1">
          <mxGeometry x="986" y="25" width="80" height="30" as="geometry" />
        </mxCell>
        <mxCell id="U4MEnaKeAxZYiRRCWtu5-120" value="inscription" style="rounded=1;whiteSpace=wrap;html=1;" vertex="1" parent="1">
          <mxGeometry x="1076" y="25" width="80" height="30" as="geometry" />
        </mxCell>
      </root>
    </mxGraphModel>
  </diagram>
</mxfile>
